<svg width="24" height="24" viewBox="0 0 24 24" fill="none" xmlns="http://www.w3.org/2000/svg">
<path d="M134.551 19.7315C134.587 20.1439 134.958 20.4652 135.371 20.4652H140.154C140.625 20.4652 141 20.0901 141 19.6197V14.8499C141 14.3528 140.562 13.9286 140.015 14.0223C139.626 14.0669 139.299 14.4143 139.299 14.8365V17.1623C137.738 15.2106 135.616 14 132.998 14C128.524 14.0048 125 17.6265 125 21.9997C125 26.2592 128.428 30 133.04 30C136.694 30 140.041 27.3314 140.812 23.783C140.903 23.3629 140.666 22.8762 140.17 22.7716C139.62 22.6581 139.236 23.05 139.158 23.4127C138.592 26.0624 136.079 28.2502 133.104 28.2949C129.601 28.3484 126.687 25.5312 126.687 22.0042C126.687 18.5504 129.518 15.6998 132.992 15.6998C135.304 15.6998 137.268 16.9956 138.366 18.7597H135.38C134.904 18.7698 134.48 19.1809 134.551 19.7315Z" fill="#5B738B"/>
</svg>
