<svg width="4" height="4" viewBox="0 0 4 4" fill="none" xmlns="http://www.w3.org/2000/svg">
<g clip-path="url(#clip0_2_444)">
<path fill-rule="evenodd" clip-rule="evenodd" d="M0.105866 2.6861C0.124549 2.6944 0.145306 2.69855 0.166065 2.69855H0.168141C0.211733 2.69855 0.2574 2.67987 0.288537 2.64666L0.902977 1.99278H1.90974C2.22942 1.99278 2.49097 1.73122 2.49097 1.41155V0.581226C2.49097 0.261552 2.22942 0 1.90974 0H0.581226C0.261552 0 0 0.261552 0 0.581226V2.53249C0 2.59891 0.043592 2.66119 0.105866 2.6861ZM0.33213 0.581226C0.33213 0.444223 0.444223 0.332129 0.581226 0.332129H1.90974C2.04675 0.332129 2.15884 0.444223 2.15884 0.581226V1.41155C2.15884 1.54855 2.04675 1.66065 1.90974 1.66065H0.830324C0.784656 1.66065 0.741063 1.67933 0.709926 1.71254L0.33213 2.11317V0.581226Z" fill="#131E29" fill-opacity="0.8"/>
<path d="M3.03483 3.2694C3.06597 3.30261 3.10956 3.32129 3.15523 3.32129H3.15731C3.17599 3.32129 3.19675 3.31714 3.2175 3.30884C3.28185 3.28393 3.32337 3.22373 3.32337 3.15523V1.20397C3.32337 1.11263 3.24864 1.0379 3.15731 1.0379C3.06597 1.0379 2.99124 1.11263 2.99124 1.20397V2.73592L2.61344 2.33528C2.58231 2.30207 2.53871 2.28339 2.49305 2.28339H1.20604C1.11471 2.28339 1.03998 2.35812 1.03998 2.44945C1.03998 2.54079 1.11471 2.61552 1.20604 2.61552H2.42039L3.03483 3.2694Z" fill="#131E29" fill-opacity="0.8"/>
</g>
<defs>
<clipPath id="clip0_2_444">
<rect width="3.32129" height="3.32129" fill="white"/>
</clipPath>
</defs>
</svg>
