<svg width="16" height="16" viewBox="11 14 16 16" fill="none" xmlns="http://www.w3.org/2000/svg">
<path d="M23.8053 30.0017H17.3981C16.0768 30.0017 15.0044 28.9293 15.0044 27.6081V19.599C15.0044 18.2777 16.0768 17.2053 17.3981 17.2053H23.8053C25.1266 17.2053 26.199 18.2777 26.199 19.599V27.6081C26.194 28.9247 25.1321 30.0017 23.8053 30.0017ZM17.3981 18.789C16.9524 18.789 16.5881 19.1537 16.5881 19.599V27.6081C16.5881 28.0537 16.9527 28.4181 17.3981 28.4181H23.8053C24.251 28.4181 24.6153 28.0534 24.6153 27.6081V19.599C24.6153 19.1533 24.2507 18.789 23.8053 18.789H17.3981ZM12.5926 26.7981C12.1712 26.7981 11.8008 26.4604 11.8008 26.0063V16.3954C11.8008 15.0741 12.8732 14.0017 14.1944 14.0017H22.2035C22.6157 14.0017 22.9954 14.3345 22.9954 14.7936C22.9954 15.2153 22.6528 15.5854 22.2035 15.5854H14.1944C13.7488 15.5854 13.3845 15.95 13.3845 16.3954V26.0063C13.3795 26.4142 13.0557 26.7981 12.5926 26.7981Z" fill="#5B738B"/>
</svg>
