<svg width="5" height="5" viewBox="0 0 5 5" fill="none" xmlns="http://www.w3.org/2000/svg">
<g clip-path="url(#clip0_2_337)">
<path d="M0.572573 0.839469C0.646353 0.761346 0.769361 0.757848 0.847506 0.831614L2.01515 1.93365C2.09533 2.00945 2.09537 2.14089 2.01515 2.2167L0.847506 3.32C0.769421 3.39375 0.64639 3.39015 0.572573 3.31214C0.498791 3.23402 0.502322 3.11101 0.580428 3.0372L1.59806 2.07505L0.580428 1.11441C0.502308 1.04063 0.498812 0.917616 0.572573 0.839469ZM2.12943 0.839469C2.20321 0.761346 2.32622 0.757848 2.40436 0.831614L3.57201 1.93365C3.65219 2.00945 3.65223 2.14089 3.57201 2.2167L2.40436 3.32C2.32628 3.39375 2.20325 3.39015 2.12943 3.31214C2.05565 3.23402 2.05918 3.11101 2.13729 3.0372L3.15492 2.07505L2.13729 1.11441C2.05917 1.04063 2.05567 0.917616 2.12943 0.839469Z" fill="#131E29"/>
</g>
<defs>
<clipPath id="clip0_2_337">
<rect width="4.15162" height="4.15162" fill="white"/>
</clipPath>
</defs>
</svg>
