<svg xmlns="http://www.w3.org/2000/svg" viewBox="0 0 1100 740" font-family="Georgia, 'Times New Roman', serif">

  <rect width="1100" height="740" fill="#0a0a0a"/>

  <!-- ══ SECTION LABEL ══ -->
  <text x="60" y="58" font-family="Georgia, serif" font-size="11" fill="rgba(255,255,255,0.5)" letter-spacing="4" font-style="italic">role</text>
  <text x="100" y="58" font-family="Georgia, serif" font-size="22" fill="#fff" font-weight="700" letter-spacing="1">journeys</text>
  <line x1="60" y1="66" x2="300" y2="66" stroke="rgba(255,255,255,0.35)" stroke-width="1.5"/>

  <!-- ══════════════════════════════════
       LEFT — AR ANALYST
  ══════════════════════════════════ -->

  <!-- Desk surface -->
  <rect x="60" y="178" width="120" height="7" rx="2" fill="rgba(255,255,255,0.35)"/>
  <!-- Monitor -->
  <rect x="100" y="138" width="52" height="36" rx="3" fill="none" stroke="rgba(255,255,255,0.85)" stroke-width="2"/>
  <rect x="108" y="143" width="36" height="24" rx="1" fill="rgba(255,255,255,0.08)"/>
  <!-- Bar chart on screen -->
  <rect x="112" y="158" width="5" height="8" fill="rgba(255,255,255,0.8)"/>
  <rect x="119" y="154" width="5" height="12" fill="rgba(255,255,255,0.8)"/>
  <rect x="126" y="150" width="5" height="16" fill="#fff"/>
  <rect x="133" y="155" width="5" height="11" fill="rgba(255,255,255,0.8)"/>
  <!-- Monitor stand -->
  <rect x="123" y="174" width="6" height="4" fill="rgba(255,255,255,0.6)"/>
  <rect x="116" y="177" width="20" height="3" rx="1" fill="rgba(255,255,255,0.6)"/>
  <!-- Person body -->
  <ellipse cx="88" cy="155" rx="12" ry="14" fill="none" stroke="rgba(255,255,255,0.9)" stroke-width="2"/>
  <!-- Head -->
  <circle cx="88" cy="130" r="11" fill="none" stroke="#fff" stroke-width="2"/>
  <!-- Glasses -->
  <rect x="82" y="127" width="7" height="5" rx="2" fill="none" stroke="rgba(255,255,255,0.9)" stroke-width="1.5"/>
  <rect x="91" y="127" width="7" height="5" rx="2" fill="none" stroke="rgba(255,255,255,0.9)" stroke-width="1.5"/>
  <line x1="89" y1="129.5" x2="91" y2="129.5" stroke="rgba(255,255,255,0.8)" stroke-width="1.5"/>
  <line x1="82" y1="129.5" x2="79" y2="130" stroke="rgba(255,255,255,0.7)" stroke-width="1.5"/>
  <line x1="98" y1="129.5" x2="101" y2="130" stroke="rgba(255,255,255,0.7)" stroke-width="1.5"/>
  <!-- Smile -->
  <path d="M84,136 Q88,140 92,136" fill="none" stroke="rgba(255,255,255,0.8)" stroke-width="1.5" stroke-linecap="round"/>
  <!-- Arms -->
  <line x1="80" y1="158" x2="68" y2="173" stroke="rgba(255,255,255,0.8)" stroke-width="2" stroke-linecap="round"/>
  <line x1="96" y1="158" x2="107" y2="169" stroke="rgba(255,255,255,0.8)" stroke-width="2" stroke-linecap="round"/>

  <!-- Analyst role label -->
  <text x="60" y="214" font-family="Georgia, serif" font-size="10" fill="rgba(255,255,255,0.55)" letter-spacing="3" font-style="italic">ar</text>
  <text x="78" y="214" font-family="Georgia, serif" font-size="18" fill="#ffffff" font-weight="700">Analyst</text>
  <text x="60" y="232" font-family="-apple-system, BlinkMacSystemFont, sans-serif" font-size="9.5" fill="rgba(255,255,255,0.6)" letter-spacing="1">PORTFOLIO · RISK · STRATEGY</text>

  <!-- Flow line — analyst -->
  <line x1="110" y1="244" x2="110" y2="646" stroke="rgba(255,255,255,0.35)" stroke-width="2"/>

  <!-- Step 1 -->
  <circle cx="110" cy="270" r="6" fill="#fff"/>
  <text x="130" y="269" font-family="-apple-system, sans-serif" font-size="12" font-weight="700" fill="#fff">Review Prioritised Customer List</text>
  <text x="130" y="285" font-family="-apple-system, sans-serif" font-size="9.5" fill="rgba(255,255,255,0.6)">AI-ranked portfolio — high-risk accounts surfaced first</text>

  <!-- Step 2 -->
  <circle cx="110" cy="324" r="6" fill="#fff"/>
  <text x="130" y="323" font-family="-apple-system, sans-serif" font-size="12" font-weight="700" fill="#fff">Gather Data</text>
  <text x="130" y="339" font-family="-apple-system, sans-serif" font-size="9.5" fill="rgba(255,255,255,0.6)">Receivables · Disputes · Credit info · Due periods — all aggregated</text>

  <!-- Step 3 with decision branches -->
  <circle cx="110" cy="380" r="6" fill="#fff"/>
  <text x="130" y="379" font-family="-apple-system, sans-serif" font-size="12" font-weight="700" fill="#fff">Analyse Risk &amp; Priority</text>
  <text x="130" y="395" font-family="-apple-system, sans-serif" font-size="9.5" fill="rgba(255,255,255,0.6)">Credit behaviour · Dispute status · Can it be solved?</text>
  <!-- Branch lines -->
  <line x1="130" y1="408" x2="130" y2="424" stroke="rgba(255,255,255,0.45)" stroke-width="1.5" stroke-dasharray="3 3"/>
  <line x1="130" y1="424" x2="200" y2="424" stroke="rgba(255,255,255,0.45)" stroke-width="1.5"/>
  <line x1="130" y1="424" x2="130" y2="444" stroke="rgba(255,255,255,0.45)" stroke-width="1.5" stroke-dasharray="3 3"/>
  <line x1="130" y1="444" x2="200" y2="444" stroke="rgba(255,255,255,0.45)" stroke-width="1.5"/>
  <circle cx="200" cy="424" r="3" fill="rgba(255,255,255,0.6)"/>
  <circle cx="200" cy="444" r="3" fill="rgba(255,255,255,0.6)"/>
  <text x="210" y="428" font-family="-apple-system, sans-serif" font-size="9" fill="rgba(255,255,255,0.65)">Credit behaviour?</text>
  <text x="210" y="448" font-family="-apple-system, sans-serif" font-size="9" fill="rgba(255,255,255,0.65)">Status of dispute?</text>

  <!-- Step 4 -->
  <circle cx="110" cy="480" r="6" fill="#fff"/>
  <text x="130" y="479" font-family="-apple-system, sans-serif" font-size="12" font-weight="700" fill="#fff">Review Customer History &amp; Disputes</text>
  <text x="130" y="495" font-family="-apple-system, sans-serif" font-size="9.5" fill="rgba(255,255,255,0.6)">Unified 360° view — no screen switching</text>

  <!-- Step 5 -->
  <circle cx="110" cy="534" r="6" fill="#fff"/>
  <text x="130" y="533" font-family="-apple-system, sans-serif" font-size="12" font-weight="700" fill="#fff">Update System · Select Action</text>
  <text x="130" y="549" font-family="-apple-system, sans-serif" font-size="9.5" fill="rgba(255,255,255,0.6)">Escalate · Flag risk · Route to Collections</text>

  <!-- Outcome fork — analyst -->
  <line x1="110" y1="558" x2="110" y2="592" stroke="rgba(255,255,255,0.35)" stroke-width="2"/>
  <line x1="110" y1="592" x2="66" y2="618" stroke="rgba(255,255,255,0.35)" stroke-width="2"/>
  <line x1="110" y1="592" x2="154" y2="618" stroke="rgba(255,255,255,0.35)" stroke-width="2"/>
  <circle cx="66" cy="626" r="5" fill="none" stroke="rgba(255,255,255,0.7)" stroke-width="2"/>
  <circle cx="154" cy="626" r="5" fill="none" stroke="rgba(255,255,255,0.7)" stroke-width="2"/>
  <text x="66" y="645" text-anchor="middle" font-family="-apple-system, sans-serif" font-size="9" fill="rgba(255,255,255,0.7)">Case Closed</text>
  <text x="154" y="645" text-anchor="middle" font-family="-apple-system, sans-serif" font-size="9" fill="rgba(255,255,255,0.7)">Escalated</text>

  <!-- ══════════════════════════════════
       CENTER DIVIDER
  ══════════════════════════════════ -->
  <line x1="550" y1="80" x2="550" y2="680" stroke="rgba(255,255,255,0.15)" stroke-width="1.5"/>
  <text x="550" y="388" text-anchor="middle" font-family="Georgia, serif" font-size="9.5" fill="rgba(255,255,255,0.35)" font-style="italic" letter-spacing="2">shared</text>
  <text x="550" y="404" text-anchor="middle" font-family="Georgia, serif" font-size="9.5" fill="rgba(255,255,255,0.35)" font-style="italic" letter-spacing="2">intelligence</text>
  <line x1="528" y1="396" x2="440" y2="396" stroke="rgba(255,255,255,0.2)" stroke-width="1" stroke-dasharray="3 4"/>
  <line x1="572" y1="396" x2="660" y2="396" stroke="rgba(255,255,255,0.2)" stroke-width="1" stroke-dasharray="3 4"/>
  <circle cx="528" cy="396" r="3" fill="rgba(255,255,255,0.4)"/>
  <circle cx="572" cy="396" r="3" fill="rgba(255,255,255,0.4)"/>

  <!-- ══════════════════════════════════
       RIGHT — COLLECTION SPECIALIST
  ══════════════════════════════════ -->

  <!-- Headset arc -->
  <path d="M668,122 Q696,106 724,122" fill="none" stroke="#fff" stroke-width="2.5" stroke-linecap="round"/>
  <circle cx="666" cy="126" r="5" fill="none" stroke="#fff" stroke-width="2.5"/>
  <circle cx="726" cy="126" r="5" fill="none" stroke="#fff" stroke-width="2.5"/>
  <!-- Mic boom -->
  <path d="M666,131 Q663,140 671,144" fill="none" stroke="rgba(255,255,255,0.85)" stroke-width="2" stroke-linecap="round"/>
  <circle cx="672" cy="145" r="3" fill="rgba(255,255,255,0.85)"/>
  <!-- Head -->
  <circle cx="696" cy="130" r="12" fill="none" stroke="#fff" stroke-width="2.5"/>
  <!-- Eyes -->
  <circle cx="691" cy="128" r="2" fill="#fff"/>
  <circle cx="701" cy="128" r="2" fill="#fff"/>
  <!-- Smile -->
  <path d="M691,135 Q696,139 701,135" fill="none" stroke="rgba(255,255,255,0.85)" stroke-width="1.5" stroke-linecap="round"/>
  <!-- Body -->
  <ellipse cx="696" cy="161" rx="14" ry="15" fill="none" stroke="#fff" stroke-width="2.5"/>
  <!-- Arms -->
  <line x1="682" y1="161" x2="668" y2="174" stroke="rgba(255,255,255,0.85)" stroke-width="2.5" stroke-linecap="round"/>
  <line x1="710" y1="161" x2="722" y2="166" stroke="rgba(255,255,255,0.85)" stroke-width="2.5" stroke-linecap="round"/>
  <!-- Phone in hand -->
  <rect x="722" y="163" width="10" height="18" rx="2" fill="none" stroke="rgba(255,255,255,0.85)" stroke-width="2"/>
  <circle cx="727" cy="179" r="1.5" fill="rgba(255,255,255,0.7)"/>

  <!-- Collector role label -->
  <text x="640" y="214" font-family="Georgia, serif" font-size="10" fill="rgba(255,255,255,0.55)" letter-spacing="3" font-style="italic">collection</text>
  <text x="742" y="214" font-family="Georgia, serif" font-size="18" fill="#ffffff" font-weight="700">Specialist</text>
  <text x="640" y="232" font-family="-apple-system, BlinkMacSystemFont, sans-serif" font-size="9.5" fill="rgba(255,255,255,0.6)" letter-spacing="1">ACCOUNT · OUTREACH · RESOLUTION</text>

  <!-- Flow line — collector -->
  <line x1="720" y1="244" x2="720" y2="646" stroke="rgba(255,255,255,0.35)" stroke-width="2"/>

  <!-- Step 1 -->
  <circle cx="720" cy="270" r="6" fill="#fff"/>
  <text x="740" y="269" font-family="-apple-system, sans-serif" font-size="12" font-weight="700" fill="#fff">Review Prioritised Customer List</text>
  <text x="740" y="285" font-family="-apple-system, sans-serif" font-size="9.5" fill="rgba(255,255,255,0.6)">AI-ranked worklist — top accounts flagged by urgency</text>

  <!-- Step 2 -->
  <circle cx="720" cy="324" r="6" fill="#fff"/>
  <text x="740" y="323" font-family="-apple-system, sans-serif" font-size="12" font-weight="700" fill="#fff">Gather Data — 360° Account View</text>
  <text x="740" y="339" font-family="-apple-system, sans-serif" font-size="9.5" fill="rgba(255,255,255,0.6)">Receivables · Disputes · Credit · Due period — unified in one tap</text>

  <!-- Step 3 with 4 action branches -->
  <circle cx="720" cy="380" r="6" fill="#fff"/>
  <text x="740" y="379" font-family="-apple-system, sans-serif" font-size="12" font-weight="700" fill="#fff">Select Appropriate Action</text>
  <text x="740" y="395" font-family="-apple-system, sans-serif" font-size="9.5" fill="rgba(255,255,255,0.6)">AI recommends next best action — four outreach channels</text>
  <!-- Horizontal branch bar -->
  <line x1="740" y1="408" x2="740" y2="422" stroke="rgba(255,255,255,0.45)" stroke-width="1.5" stroke-dasharray="3 3"/>
  <line x1="786" y1="422" x2="1020" y2="422" stroke="rgba(255,255,255,0.45)" stroke-width="1.5"/>
  <line x1="786" y1="422" x2="786" y2="438" stroke="rgba(255,255,255,0.45)" stroke-width="1.5"/>
  <line x1="862" y1="422" x2="862" y2="438" stroke="rgba(255,255,255,0.45)" stroke-width="1.5"/>
  <line x1="938" y1="422" x2="938" y2="438" stroke="rgba(255,255,255,0.45)" stroke-width="1.5"/>
  <line x1="1020" y1="422" x2="1020" y2="438" stroke="rgba(255,255,255,0.45)" stroke-width="1.5"/>
  <circle cx="786" cy="442" r="4" fill="rgba(255,255,255,0.7)"/>
  <circle cx="862" cy="442" r="4" fill="rgba(255,255,255,0.7)"/>
  <circle cx="938" cy="442" r="4" fill="rgba(255,255,255,0.7)"/>
  <circle cx="1020" cy="442" r="4" fill="rgba(255,255,255,0.7)"/>
  <text x="786" y="458" text-anchor="middle" font-family="-apple-system, sans-serif" font-size="9.5" fill="rgba(255,255,255,0.75)">Email</text>
  <text x="862" y="458" text-anchor="middle" font-family="-apple-system, sans-serif" font-size="9.5" fill="rgba(255,255,255,0.75)">Phone Call</text>
  <text x="938" y="458" text-anchor="middle" font-family="-apple-system, sans-serif" font-size="9.5" fill="rgba(255,255,255,0.75)">Resend Invoice</text>
  <text x="1020" y="458" text-anchor="middle" font-family="-apple-system, sans-serif" font-size="9.5" fill="rgba(255,255,255,0.75)">Payment Plan</text>

  <!-- Step 4 -->
  <circle cx="720" cy="480" r="6" fill="#fff"/>
  <text x="740" y="479" font-family="-apple-system, sans-serif" font-size="12" font-weight="700" fill="#fff">Communicate with Customer</text>
  <text x="740" y="495" font-family="-apple-system, sans-serif" font-size="9.5" fill="rgba(255,255,255,0.6)">AI drafts message — specialist reviews and sends</text>

  <!-- Step 5 -->
  <circle cx="720" cy="534" r="6" fill="#fff"/>
  <text x="740" y="533" font-family="-apple-system, sans-serif" font-size="12" font-weight="700" fill="#fff">Update System · Log Outcome</text>
  <text x="740" y="549" font-family="-apple-system, sans-serif" font-size="9.5" fill="rgba(255,255,255,0.6)">Log PTP · Dunning block · Call notes — without leaving EL</text>

  <!-- Outcome fork — collector -->
  <line x1="720" y1="558" x2="720" y2="592" stroke="rgba(255,255,255,0.35)" stroke-width="2"/>
  <line x1="720" y1="592" x2="676" y2="618" stroke="rgba(255,255,255,0.35)" stroke-width="2"/>
  <line x1="720" y1="592" x2="764" y2="618" stroke="rgba(255,255,255,0.35)" stroke-width="2"/>
  <circle cx="676" cy="626" r="5" fill="none" stroke="rgba(255,255,255,0.7)" stroke-width="2"/>
  <circle cx="764" cy="626" r="5" fill="none" stroke="rgba(255,255,255,0.7)" stroke-width="2"/>
  <text x="676" y="645" text-anchor="middle" font-family="-apple-system, sans-serif" font-size="9" fill="rgba(255,255,255,0.7)">Case Closed</text>
  <text x="764" y="645" text-anchor="middle" font-family="-apple-system, sans-serif" font-size="9" fill="rgba(255,255,255,0.7)">Escalated</text>

  <!-- ══ FOOTER ══ -->
  <text x="550" y="705" text-anchor="middle" font-family="Georgia, serif" font-size="9.5" fill="rgba(255,255,255,0.28)" font-style="italic" letter-spacing="3">both journeys powered by the same AR Assistant orchestrator</text>

</svg>
